<svg xmlns="http://www.w3.org/2000/svg" version="1.1" xmlns:xlink="http://www.w3.org/1999/xlink" xmlns:svgjs="http://svgjs.dev/svgjs" width="1440" height="1500" preserveAspectRatio="none" viewBox="0 0 1440 1500">
    <g mask="url(&quot;#SvgjsMask1058&quot;)" fill="none">
        <rect width="1440" height="1500" x="0" y="0" fill="rgba(24, 106, 59, 1)"></rect>
        <path d="M0,505.527C126.099,518.043,245.079,606.131,366.724,570.633C498.996,532.034,628.825,438.122,675.39,308.44C721.579,179.804,629.168,47.436,602.738,-86.661C577.978,-212.282,595.944,-348.317,524.944,-454.866C449.801,-567.632,336.275,-669.632,202.018,-688.012C70.918,-705.96,-35.454,-590.171,-161.141,-548.794C-281.323,-509.229,-436.776,-545.887,-519.779,-450.391C-602.778,-354.899,-558.966,-207.808,-567.25,-81.558C-574.828,33.932,-611.015,151.87,-566.302,258.622C-521.027,366.716,-430.171,455.363,-322.745,502.201C-222.085,546.088,-109.274,494.681,0,505.527" fill="#13522d"></path>
        <path d="M1440 2050.349C1540.833 2025.728 1634.923 1994.578 1726.747 1946.187 1826.909 1893.402 1939.806 1851.724 1999.479 1755.506 2062.149 1654.456 2089.756 1525.814 2058.629 1411.055 2028.5349999999999 1300.104 1917.94 1237.62 1836.893 1156.09 1761.945 1080.696 1691.925 1006.373 1601.223 950.924 1483.232 878.792 1360.693 739.642 1230.096 785.133 1097.496 831.322 1093.682 1021.2 1034.253 1148.4180000000001 991.477 1239.987 967.414 1332.69 930.379 1426.728 879.691 1555.432 753.344 1666.652 776.446 1803.035 799.775 1940.76 915.615 2063.503 1046.5059999999999 2112.288 1173.496 2159.619 1308.344 2082.497 1440 2050.349" fill="#1e8249"></path>
    </g>
    <defs>
        <mask id="SvgjsMask1058">
            <rect width="1440" height="1500" fill="#ffffff"></rect>
        </mask>
    </defs>
</svg>